<mxfile host="app.diagrams.net" agent="Mozilla/5.0 (Macintosh; Intel Mac OS X 10_15_7) AppleWebKit/537.36 (KHTML, like Gecko) Chrome/131.0.0.0 Safari/537.36 Edg/131.0.0.0" version="24.8.3">
  <diagram id="prtHgNgQTEPvFCAcTncT" name="Page-1">
    <mxGraphModel dx="1928" dy="647" grid="1" gridSize="10" guides="1" tooltips="1" connect="1" arrows="1" fold="1" page="1" pageScale="1" pageWidth="827" pageHeight="1169" math="0" shadow="0">
      <root>
        <mxCell id="0" />
        <mxCell id="1" parent="0" />
        <mxCell id="OQ3-HiYQG09LI8E70GHC-3" value="" style="edgeStyle=orthogonalEdgeStyle;rounded=0;orthogonalLoop=1;jettySize=auto;html=1;" edge="1" parent="1" source="OQ3-HiYQG09LI8E70GHC-1" target="OQ3-HiYQG09LI8E70GHC-2">
          <mxGeometry relative="1" as="geometry">
            <Array as="points">
              <mxPoint x="380" y="200" />
              <mxPoint x="380" y="200" />
            </Array>
          </mxGeometry>
        </mxCell>
        <mxCell id="OQ3-HiYQG09LI8E70GHC-1" value="&lt;span style=&quot;text-align: start; font-family: 仿宋;&quot;&gt;&lt;font style=&quot;font-size: 18px;&quot;&gt;工业级分布式可信联邦学习平台&lt;/font&gt;&lt;/span&gt;&lt;span style=&quot;font-size: medium; text-align: start;&quot;&gt;&lt;/span&gt;" style="rounded=1;whiteSpace=wrap;html=1;fillColor=#0050ef;strokeColor=#001DBC;fontColor=#ffffff;" vertex="1" parent="1">
          <mxGeometry x="220" y="110" width="230" height="50" as="geometry" />
        </mxCell>
        <mxCell id="OQ3-HiYQG09LI8E70GHC-2" value="后端交互系统" style="whiteSpace=wrap;html=1;fillColor=#a20025;strokeColor=#6F0000;rounded=1;fontColor=#ffffff;" vertex="1" parent="1">
          <mxGeometry x="320" y="240" width="120" height="55" as="geometry" />
        </mxCell>
        <mxCell id="OQ3-HiYQG09LI8E70GHC-4" value="信息交互平台前端" style="whiteSpace=wrap;html=1;fillColor=#008a00;strokeColor=#005700;rounded=1;fontColor=#ffffff;" vertex="1" parent="1">
          <mxGeometry x="-20" y="240" width="120" height="55" as="geometry" />
        </mxCell>
        <mxCell id="OQ3-HiYQG09LI8E70GHC-6" value="联邦学习平台" style="whiteSpace=wrap;html=1;fillColor=#6B5E00;strokeColor=#6F0000;rounded=1;fontColor=#ffffff;fillStyle=auto;" vertex="1" parent="1">
          <mxGeometry x="530" y="240" width="120" height="55" as="geometry" />
        </mxCell>
        <mxCell id="OQ3-HiYQG09LI8E70GHC-8" value="" style="endArrow=none;html=1;rounded=0;" edge="1" parent="1">
          <mxGeometry width="50" height="50" relative="1" as="geometry">
            <mxPoint x="590" y="200" as="sourcePoint" />
            <mxPoint x="40" y="200" as="targetPoint" />
          </mxGeometry>
        </mxCell>
        <mxCell id="OQ3-HiYQG09LI8E70GHC-9" value="" style="endArrow=classic;html=1;rounded=0;entryX=0.5;entryY=0;entryDx=0;entryDy=0;" edge="1" parent="1" target="OQ3-HiYQG09LI8E70GHC-4">
          <mxGeometry width="50" height="50" relative="1" as="geometry">
            <mxPoint x="40" y="200" as="sourcePoint" />
            <mxPoint x="440" y="270" as="targetPoint" />
          </mxGeometry>
        </mxCell>
        <mxCell id="OQ3-HiYQG09LI8E70GHC-10" value="" style="endArrow=classic;html=1;rounded=0;entryX=0.5;entryY=0;entryDx=0;entryDy=0;" edge="1" parent="1" target="OQ3-HiYQG09LI8E70GHC-6">
          <mxGeometry width="50" height="50" relative="1" as="geometry">
            <mxPoint x="590" y="200" as="sourcePoint" />
            <mxPoint x="440" y="270" as="targetPoint" />
          </mxGeometry>
        </mxCell>
        <mxCell id="OQ3-HiYQG09LI8E70GHC-14" value="运行情况显示" style="rounded=1;whiteSpace=wrap;html=1;fillColor=#1C2126;fontColor=#ffffff;strokeColor=#314354;" vertex="1" parent="1">
          <mxGeometry x="-130" y="380" width="80" height="40" as="geometry" />
        </mxCell>
        <mxCell id="OQ3-HiYQG09LI8E70GHC-20" value="数据集选择" style="rounded=1;whiteSpace=wrap;html=1;fillColor=#1C2126;fontColor=#ffffff;strokeColor=#314354;" vertex="1" parent="1">
          <mxGeometry x="-220" y="380" width="70" height="40" as="geometry" />
        </mxCell>
        <mxCell id="OQ3-HiYQG09LI8E70GHC-21" value="多参数显示" style="rounded=1;whiteSpace=wrap;html=1;fillColor=#1C2126;fontColor=#ffffff;strokeColor=#314354;" vertex="1" parent="1">
          <mxGeometry x="-20" y="380" width="80" height="40" as="geometry" />
        </mxCell>
        <mxCell id="OQ3-HiYQG09LI8E70GHC-22" value="节点状态显示" style="rounded=1;whiteSpace=wrap;html=1;fillColor=#1C2126;fontColor=#ffffff;strokeColor=#314354;" vertex="1" parent="1">
          <mxGeometry x="90" y="380" width="80" height="40" as="geometry" />
        </mxCell>
        <mxCell id="OQ3-HiYQG09LI8E70GHC-23" value="运行起停" style="rounded=1;whiteSpace=wrap;html=1;fillColor=#1C2126;fontColor=#ffffff;strokeColor=#314354;" vertex="1" parent="1">
          <mxGeometry x="190" y="380" width="50" height="40" as="geometry" />
        </mxCell>
        <mxCell id="OQ3-HiYQG09LI8E70GHC-29" value="" style="endArrow=none;html=1;rounded=0;exitX=0.5;exitY=1;exitDx=0;exitDy=0;" edge="1" parent="1" source="OQ3-HiYQG09LI8E70GHC-4">
          <mxGeometry width="50" height="50" relative="1" as="geometry">
            <mxPoint x="120" y="320" as="sourcePoint" />
            <mxPoint x="40" y="340" as="targetPoint" />
          </mxGeometry>
        </mxCell>
        <mxCell id="OQ3-HiYQG09LI8E70GHC-39" value="" style="endArrow=none;html=1;rounded=0;" edge="1" parent="1">
          <mxGeometry width="50" height="50" relative="1" as="geometry">
            <mxPoint x="-180" y="340" as="sourcePoint" />
            <mxPoint x="210" y="340" as="targetPoint" />
          </mxGeometry>
        </mxCell>
        <mxCell id="OQ3-HiYQG09LI8E70GHC-42" value="" style="endArrow=classic;html=1;rounded=0;entryX=0.571;entryY=0;entryDx=0;entryDy=0;entryPerimeter=0;" edge="1" parent="1" target="OQ3-HiYQG09LI8E70GHC-20">
          <mxGeometry width="50" height="50" relative="1" as="geometry">
            <mxPoint x="-180" y="340" as="sourcePoint" />
            <mxPoint x="-80" y="320" as="targetPoint" />
          </mxGeometry>
        </mxCell>
        <mxCell id="OQ3-HiYQG09LI8E70GHC-43" value="" style="endArrow=classic;html=1;rounded=0;" edge="1" parent="1" target="OQ3-HiYQG09LI8E70GHC-14">
          <mxGeometry width="50" height="50" relative="1" as="geometry">
            <mxPoint x="-90" y="340" as="sourcePoint" />
            <mxPoint x="10" y="320" as="targetPoint" />
          </mxGeometry>
        </mxCell>
        <mxCell id="OQ3-HiYQG09LI8E70GHC-44" value="" style="endArrow=classic;html=1;rounded=0;" edge="1" parent="1" target="OQ3-HiYQG09LI8E70GHC-21">
          <mxGeometry width="50" height="50" relative="1" as="geometry">
            <mxPoint x="20" y="340" as="sourcePoint" />
            <mxPoint x="50" y="320" as="targetPoint" />
          </mxGeometry>
        </mxCell>
        <mxCell id="OQ3-HiYQG09LI8E70GHC-45" value="" style="endArrow=classic;html=1;rounded=0;entryX=0.5;entryY=0;entryDx=0;entryDy=0;" edge="1" parent="1" target="OQ3-HiYQG09LI8E70GHC-22">
          <mxGeometry width="50" height="50" relative="1" as="geometry">
            <mxPoint x="130" y="340" as="sourcePoint" />
            <mxPoint x="150" y="320" as="targetPoint" />
          </mxGeometry>
        </mxCell>
        <mxCell id="OQ3-HiYQG09LI8E70GHC-46" value="" style="endArrow=classic;html=1;rounded=0;entryX=0.405;entryY=-0.005;entryDx=0;entryDy=0;entryPerimeter=0;" edge="1" parent="1" target="OQ3-HiYQG09LI8E70GHC-23">
          <mxGeometry width="50" height="50" relative="1" as="geometry">
            <mxPoint x="210" y="340" as="sourcePoint" />
            <mxPoint x="150" y="320" as="targetPoint" />
          </mxGeometry>
        </mxCell>
        <mxCell id="OQ3-HiYQG09LI8E70GHC-47" value="接口实现" style="rounded=1;whiteSpace=wrap;html=1;fillColor=#1C2126;fontColor=#ffffff;strokeColor=#314354;" vertex="1" parent="1">
          <mxGeometry x="290" y="380" width="50" height="40" as="geometry" />
        </mxCell>
        <mxCell id="OQ3-HiYQG09LI8E70GHC-48" value="前端数据传输交互" style="rounded=1;whiteSpace=wrap;html=1;fillColor=#1C2126;fontColor=#ffffff;strokeColor=#314354;" vertex="1" parent="1">
          <mxGeometry x="390" y="380" width="85" height="40" as="geometry" />
        </mxCell>
        <mxCell id="OQ3-HiYQG09LI8E70GHC-49" value="" style="endArrow=none;html=1;rounded=0;" edge="1" parent="1">
          <mxGeometry width="50" height="50" relative="1" as="geometry">
            <mxPoint x="310" y="340" as="sourcePoint" />
            <mxPoint x="440" y="340" as="targetPoint" />
          </mxGeometry>
        </mxCell>
        <mxCell id="OQ3-HiYQG09LI8E70GHC-50" value="" style="endArrow=none;html=1;rounded=0;entryX=0.5;entryY=1;entryDx=0;entryDy=0;" edge="1" parent="1" target="OQ3-HiYQG09LI8E70GHC-2">
          <mxGeometry width="50" height="50" relative="1" as="geometry">
            <mxPoint x="380" y="340" as="sourcePoint" />
            <mxPoint x="360" y="350" as="targetPoint" />
          </mxGeometry>
        </mxCell>
        <mxCell id="OQ3-HiYQG09LI8E70GHC-51" value="" style="endArrow=classic;html=1;rounded=0;entryX=0.409;entryY=-0.005;entryDx=0;entryDy=0;entryPerimeter=0;" edge="1" parent="1" target="OQ3-HiYQG09LI8E70GHC-47">
          <mxGeometry width="50" height="50" relative="1" as="geometry">
            <mxPoint x="310" y="340" as="sourcePoint" />
            <mxPoint x="360" y="350" as="targetPoint" />
          </mxGeometry>
        </mxCell>
        <mxCell id="OQ3-HiYQG09LI8E70GHC-52" value="" style="endArrow=classic;html=1;rounded=0;entryX=0.59;entryY=-0.005;entryDx=0;entryDy=0;entryPerimeter=0;" edge="1" parent="1" target="OQ3-HiYQG09LI8E70GHC-48">
          <mxGeometry width="50" height="50" relative="1" as="geometry">
            <mxPoint x="440" y="340" as="sourcePoint" />
            <mxPoint x="360" y="350" as="targetPoint" />
          </mxGeometry>
        </mxCell>
        <mxCell id="OQ3-HiYQG09LI8E70GHC-55" value="非独立同分布(NonIID) 数据集处理" style="rounded=1;whiteSpace=wrap;html=1;fillColor=#1C2126;fontColor=#ffffff;strokeColor=#314354;" vertex="1" parent="1">
          <mxGeometry x="500" y="380" width="90" height="40" as="geometry" />
        </mxCell>
        <mxCell id="OQ3-HiYQG09LI8E70GHC-56" value="可信度评估" style="rounded=1;whiteSpace=wrap;html=1;fillColor=#1C2126;fontColor=#ffffff;strokeColor=#314354;" vertex="1" parent="1">
          <mxGeometry x="620" y="380" width="50" height="40" as="geometry" />
        </mxCell>
        <mxCell id="OQ3-HiYQG09LI8E70GHC-57" value="梯度签名" style="rounded=1;whiteSpace=wrap;html=1;fillColor=#1C2126;fontColor=#ffffff;strokeColor=#314354;" vertex="1" parent="1">
          <mxGeometry x="700" y="380" width="50" height="40" as="geometry" />
        </mxCell>
        <mxCell id="OQ3-HiYQG09LI8E70GHC-58" value="" style="endArrow=none;html=1;rounded=0;" edge="1" parent="1">
          <mxGeometry width="50" height="50" relative="1" as="geometry">
            <mxPoint x="540" y="340" as="sourcePoint" />
            <mxPoint x="730" y="340" as="targetPoint" />
          </mxGeometry>
        </mxCell>
        <mxCell id="OQ3-HiYQG09LI8E70GHC-59" value="" style="endArrow=none;html=1;rounded=0;entryX=0.5;entryY=1;entryDx=0;entryDy=0;" edge="1" parent="1" target="OQ3-HiYQG09LI8E70GHC-6">
          <mxGeometry width="50" height="50" relative="1" as="geometry">
            <mxPoint x="590" y="340" as="sourcePoint" />
            <mxPoint x="550" y="290" as="targetPoint" />
          </mxGeometry>
        </mxCell>
        <mxCell id="OQ3-HiYQG09LI8E70GHC-60" value="" style="endArrow=classic;html=1;rounded=0;entryX=0.442;entryY=0.016;entryDx=0;entryDy=0;entryPerimeter=0;" edge="1" parent="1" target="OQ3-HiYQG09LI8E70GHC-55">
          <mxGeometry width="50" height="50" relative="1" as="geometry">
            <mxPoint x="540" y="340" as="sourcePoint" />
            <mxPoint x="550" y="290" as="targetPoint" />
          </mxGeometry>
        </mxCell>
        <mxCell id="OQ3-HiYQG09LI8E70GHC-61" value="" style="endArrow=classic;html=1;rounded=0;entryX=0.6;entryY=0;entryDx=0;entryDy=0;entryPerimeter=0;" edge="1" parent="1" target="OQ3-HiYQG09LI8E70GHC-56">
          <mxGeometry width="50" height="50" relative="1" as="geometry">
            <mxPoint x="650" y="340" as="sourcePoint" />
            <mxPoint x="460" y="360" as="targetPoint" />
          </mxGeometry>
        </mxCell>
        <mxCell id="OQ3-HiYQG09LI8E70GHC-63" value="" style="endArrow=classic;html=1;rounded=0;entryX=0.595;entryY=0.016;entryDx=0;entryDy=0;entryPerimeter=0;" edge="1" parent="1" target="OQ3-HiYQG09LI8E70GHC-57">
          <mxGeometry width="50" height="50" relative="1" as="geometry">
            <mxPoint x="730" y="340" as="sourcePoint" />
            <mxPoint x="730" y="370" as="targetPoint" />
          </mxGeometry>
        </mxCell>
      </root>
    </mxGraphModel>
  </diagram>
</mxfile>
